<svg width="966" height="59" viewBox="0 0 966 59" fill="none" xmlns="http://www.w3.org/2000/svg">
<path d="M0.509521 1.44734V57.1807H12.7646V33.1388H35.3233V57.1807H47.5784V1.44734H35.3233V22.8352H12.7646V1.44734H0.509521Z" fill="#32D74B"/>
<path d="M70.0756 1.44734V57.1807H112.383V46.877H82.3306V33.2169H109.339V23.6938H82.3306V11.751H111.758V1.44734H70.0756Z" fill="#32D74B"/>
<path d="M146.45 35.6367L153.71 15.1855H153.866L160.891 35.6367H146.45ZM147.621 1.44734L126.546 57.1807H138.879L143.25 44.7695H164.091L168.307 57.1807H181.03L160.189 1.44734H147.621Z" fill="#32D74B"/>
<path d="M197.545 1.44734V57.1807H236.964V46.877H209.8V1.44734H197.545Z" fill="#32D74B"/>
<path d="M260.692 11.751V57.1807H272.947V11.751H289.651V1.44734H243.987V11.751H260.692Z" fill="#32D74B"/>
<path d="M307.786 1.44734V57.1807H320.041V33.1388H342.6V57.1807H354.855V1.44734H342.6V22.8352H320.041V1.44734H307.786Z" fill="#32D74B"/>
<path d="M391.793 35.4806V57.1807H404.048V35.7928L424.733 1.44734H411.073L398.116 23.4597L385.08 1.44734H371.342L391.793 35.4806Z" fill="#32D74B"/>
<path d="M482.911 38.681H471.046C470.994 42.1155 471.618 45.0817 472.919 47.5795C474.22 50.0774 475.964 52.1329 478.149 53.7461C480.387 55.3593 482.937 56.5302 485.799 57.2587C488.713 58.0393 491.705 58.4296 494.776 58.4296C498.574 58.4296 501.905 57.9873 504.767 57.1026C507.681 56.2179 510.101 54.995 512.026 53.4339C514.004 51.8207 515.487 49.9213 516.476 47.7357C517.464 45.55 517.959 43.1823 517.959 40.6324C517.959 37.5101 517.282 34.9602 515.929 32.9827C514.628 30.9532 513.067 29.34 511.246 28.1431C509.424 26.9462 507.577 26.0876 505.704 25.5672C503.882 24.9948 502.451 24.6045 501.411 24.3964C497.924 23.5117 495.088 22.7832 492.902 22.2107C490.769 21.6383 489.077 21.0659 487.828 20.4935C486.632 19.921 485.825 19.2966 485.409 18.6201C484.992 17.9436 484.784 17.0589 484.784 15.9661C484.784 14.7692 485.044 13.7805 485.565 12.9999C486.085 12.2193 486.736 11.5688 487.516 11.0485C488.349 10.5281 489.26 10.1638 490.248 9.95565C491.237 9.7475 492.226 9.64342 493.215 9.64342C494.724 9.64342 496.103 9.77352 497.352 10.0337C498.653 10.2939 499.797 10.7362 500.786 11.3607C501.775 11.9852 502.555 12.8438 503.128 13.9366C503.752 15.0294 504.117 16.4084 504.221 18.0737H516.085C516.085 14.8473 515.461 12.1153 514.212 9.87759C513.015 7.5879 511.376 5.71451 509.294 4.25743C507.213 2.80035 504.819 1.75957 502.113 1.13511C499.459 0.458611 496.675 0.120361 493.761 0.120361C491.263 0.120361 488.765 0.458611 486.267 1.13511C483.77 1.81161 481.532 2.85238 479.554 4.25743C477.577 5.66247 475.964 7.43178 474.715 9.56536C473.518 11.6469 472.919 14.1187 472.919 16.9809C472.919 19.5308 473.388 21.7164 474.324 23.5377C475.313 25.307 476.588 26.7901 478.149 27.987C479.71 29.1839 481.48 30.1726 483.457 30.9532C485.435 31.6818 487.464 32.3062 489.546 32.8266C491.575 33.399 493.579 33.9194 495.556 34.3878C497.534 34.8561 499.303 35.4025 500.864 36.027C502.425 36.6514 503.674 37.432 504.611 38.3687C505.6 39.3054 506.094 40.5283 506.094 42.0374C506.094 43.4425 505.73 44.6133 505.001 45.55C504.273 46.4347 503.362 47.1372 502.269 47.6576C501.176 48.178 500.006 48.5423 498.757 48.7504C497.508 48.9065 496.337 48.9846 495.244 48.9846C493.631 48.9846 492.07 48.8025 490.561 48.4382C489.051 48.0219 487.724 47.4234 486.58 46.6428C485.487 45.8102 484.602 44.7434 483.926 43.4425C483.249 42.1415 482.911 40.5543 482.911 38.681Z" fill="#32D74B"/>
<path d="M590.039 57.1807L605.026 1.44734H593.005L583.872 39.8518H583.716L574.193 1.44734H562.718L553.039 39.3835H552.883L544.062 1.44734H531.807L546.56 57.1807H558.972L568.26 19.2445H568.417L577.862 57.1807H590.039Z" fill="#32D74B"/>
<path d="M622.381 1.44734V57.1807H634.636V1.44734H622.381Z" fill="#32D74B"/>
<path d="M669.444 11.751V57.1807H681.699V11.751H698.403V1.44734H652.739V11.751H669.444Z" fill="#32D74B"/>
<path d="M753.694 20.1812H765.558C765.194 16.9548 764.309 14.0927 762.904 11.5949C761.499 9.09702 759.704 7.01547 757.518 5.35024C755.385 3.63296 752.939 2.332 750.181 1.44734C747.475 0.562688 744.587 0.120361 741.517 0.120361C737.249 0.120361 733.398 0.874921 729.964 2.38404C726.581 3.89316 723.719 5.9747 721.378 8.62867C719.036 11.2826 717.241 14.405 715.992 17.9956C714.743 21.5342 714.118 25.3851 714.118 29.5482C714.118 33.6072 714.743 37.406 715.992 40.9446C717.241 44.4312 719.036 47.4755 721.378 50.0774C723.719 52.6793 726.581 54.7348 729.964 56.244C733.398 57.701 737.249 58.4296 741.517 58.4296C744.951 58.4296 748.099 57.9092 750.962 56.8684C753.824 55.8277 756.321 54.3185 758.455 52.3411C760.589 50.3636 762.306 47.9698 763.607 45.1598C764.908 42.3497 765.714 39.2013 766.027 35.7147H754.162C753.694 39.4615 752.393 42.4798 750.259 44.7695C748.178 47.0592 745.263 48.204 741.517 48.204C738.758 48.204 736.417 47.6836 734.491 46.6428C732.566 45.55 731.005 44.119 729.808 42.3497C728.611 40.5804 727.726 38.6029 727.154 36.4173C726.633 34.1796 726.373 31.8899 726.373 29.5482C726.373 27.1024 726.633 24.7346 727.154 22.4449C727.726 20.1552 728.611 18.1257 729.808 16.3564C731.005 14.535 732.566 13.104 734.491 12.0632C736.417 10.9704 738.758 10.424 741.517 10.424C743.026 10.424 744.457 10.6842 745.81 11.2046C747.215 11.6729 748.464 12.3494 749.557 13.2341C750.649 14.1187 751.56 15.1595 752.289 16.3564C753.017 17.5012 753.485 18.7762 753.694 20.1812Z" fill="#32D74B"/>
<path d="M786.104 1.44734V57.1807H798.359V33.1388H820.918V57.1807H833.173V1.44734H820.918V22.8352H798.359V1.44734H786.104Z" fill="#32D74B"/>
<path d="M855.67 1.44734V57.1807H897.977V46.877H867.925V33.2169H894.933V23.6938H867.925V11.751H897.353V1.44734H855.67Z" fill="#32D74B"/>
<path d="M930.25 26.66V10.9704H943.676C946.486 10.9704 948.593 11.5949 949.998 12.8438C951.403 14.0407 952.106 15.9921 952.106 18.6981C952.106 21.5082 951.403 23.5377 949.998 24.7866C948.593 26.0356 946.486 26.66 943.676 26.66H930.25ZM917.994 1.44734V57.1807H930.25V35.4025H942.505C945.575 35.4025 947.787 36.079 949.14 37.432C950.493 38.785 951.377 40.9186 951.794 43.8328C952.106 46.0704 952.34 48.4122 952.496 50.858C952.652 53.3038 953.068 55.4114 953.745 57.1807H966C965.428 56.4001 964.985 55.4634 964.673 54.3706C964.413 53.2257 964.205 52.0288 964.049 50.7799C963.945 49.531 963.867 48.3081 963.814 47.1112C963.762 45.9143 963.71 44.8735 963.658 43.9889C963.554 42.5838 963.346 41.1788 963.034 39.7738C962.774 38.3687 962.331 37.0938 961.707 35.9489C961.082 34.752 960.276 33.7373 959.287 32.9047C958.298 32.02 957.049 31.3695 955.54 30.9532V30.7971C958.663 29.5482 960.9 27.7268 962.253 25.3331C963.658 22.9393 964.361 20.1032 964.361 16.8247C964.361 14.6912 963.971 12.7137 963.19 10.8923C962.461 9.01896 961.369 7.37974 959.911 5.9747C958.506 4.56966 956.789 3.47685 954.76 2.69627C952.782 1.86365 950.545 1.44734 948.047 1.44734H917.994Z" fill="#32D74B"/>
</svg>
